<svg aria-hidden="true" style="position: absolute; width: 0; height: 0; overflow: hidden;" version="1.1" xmlns="http://www.w3.org/2000/svg" xmlns:xlink="http://www.w3.org/1999/xlink">
<defs>
<symbol id="icon-icon-linkedin" viewBox="0 0 32 32">
<path d="M25.333 0h-18.667c-3.682 0-6.667 2.985-6.667 6.667v0 18.667c0 3.682 2.985 6.667 6.667 6.667v0h18.667c3.682 0 6.667-2.985 6.667-6.667v0-18.667c0-3.682-2.985-6.667-6.667-6.667v0zM10.667 25.333h-4v-14.667h4v14.667zM8.667 8.976c-1.288 0-2.333-1.053-2.333-2.352s1.045-2.352 2.333-2.352 2.333 1.053 2.333 2.352-1.044 2.352-2.333 2.352zM26.667 25.333h-4v-7.472c0-4.491-5.333-4.151-5.333 0v7.472h-4v-14.667h4v2.353c1.861-3.448 9.333-3.703 9.333 3.301v9.012z"></path>
</symbol>
<symbol id="icon-icon-telegram" viewBox="0 0 32 32">
<path d="M25.333 32h-18.667c-3.682 0-6.667-2.985-6.667-6.667v0-18.667c0-3.682 2.985-6.667 6.667-6.667v0h18.667c3.682 0 6.667 2.985 6.667 6.667v0 18.667c0 3.682-2.985 6.667-6.667 6.667v0zM21.675 25.136c0.17 0.123 0.383 0.197 0.613 0.197 0.133 0 0.261-0.025 0.378-0.070l-0.007 0.002c0.325-0.125 0.567-0.401 0.643-0.74l0.001-0.007c0.772-3.629 2.647-12.819 3.349-16.12 0.009-0.043 0.015-0.092 0.015-0.142 0-0.213-0.095-0.403-0.244-0.531l-0.001-0.001c-0.124-0.105-0.285-0.168-0.462-0.168-0.089 0-0.174 0.016-0.253 0.046l0.005-0.002c-3.727 1.379-15.205 5.685-19.897 7.423-0.284 0.106-0.482 0.375-0.482 0.69 0 0.007 0 0.015 0 0.022l-0-0.001c0.011 0.313 0.223 0.587 0.527 0.679 2.104 0.628 4.867 1.504 4.867 1.504s1.289 3.899 1.963 5.88c0.084 0.249 0.28 0.445 0.536 0.512 0.058 0.016 0.125 0.025 0.195 0.025 0.204 0 0.39-0.080 0.527-0.209l-0 0 2.752-2.597s3.175 2.328 4.976 3.609zM11.888 17.424l1.492 4.923 0.332-3.117 9.053-8.165c0.050-0.045 0.081-0.111 0.081-0.183 0-0.057-0.020-0.11-0.052-0.152l0 0.001c-0.047-0.059-0.119-0.097-0.199-0.097-0.050 0-0.097 0.015-0.137 0.040l0.001-0.001-10.572 6.752z"></path>
</symbol>
<symbol id="icon-icon-email" viewBox="0 0 32 32">
<path d="M0 4v24h32v-24h-32zM8.831 14.572l-6.164 7.616v-12.611l6.164 4.995zM3.309 6.667h25.38l-12.689 10.284-12.691-10.284zM10.901 16.251l5.099 4.132 5.107-4.139 7.483 9.089h-25.039l7.351-9.083zM23.179 14.565l6.155-4.988v12.464l-6.155-7.476z"></path>
</symbol>
<symbol id="icon-icon-location" viewBox="0 0 32 32">
<path d="M16 0c-5.597 0-10.667 4.537-10.667 10.136 0 5.597 4.625 12.28 10.667 21.864 6.041-9.584 10.667-16.267 10.667-21.864 0-5.599-5.068-10.136-10.667-10.136zM16 14.667c-2.209 0-4-1.791-4-4s1.791-4 4-4v0c2.209 0 4 1.791 4 4s-1.791 4-4 4v0z"></path>
</symbol>
<symbol id="icon-icon-github" viewBox="0 0 32 32">
<path d="M25.333 0h-18.667c-3.682 0-6.667 2.985-6.667 6.667v0 18.667c0 3.682 2.985 6.667 6.667 6.667v0h18.667c3.682 0 6.667-2.985 6.667-6.667v0-18.667c0-3.682-2.985-6.667-6.667-6.667v0zM19.379 26.12c-0.54 0.104-0.712-0.228-0.712-0.512v-2.927c0-0.996-0.349-1.644-0.733-1.975 2.376-0.264 4.872-1.167 4.872-5.263 0-1.165-0.416-2.117-1.097-2.863 0.109-0.269 0.475-1.355-0.105-2.823 0 0-0.895-0.287-2.931 1.093-0.801-0.228-1.721-0.36-2.671-0.361h-0.001c-0.95 0.001-1.87 0.132-2.742 0.376l0.072-0.017c-2.037-1.38-2.933-1.093-2.933-1.093-0.579 1.469-0.213 2.553-0.103 2.824-0.681 0.733-1.099 1.719-1.099 2.803 0 0.021 0 0.042 0 0.063l-0-0.003c0 4.085 2.489 5.001 4.86 5.272-0.305 0.267-0.581 0.736-0.677 1.427-0.609 0.272-2.152 0.743-3.104-0.888 0 0-0.564-1.024-1.636-1.1 0 0-1.040-0.013-0.073 0.649 0 0 0.7 0.328 1.185 1.56 0 0 0.617 1.904 3.584 1.259v1.985c0 0.281-0.172 0.612-0.704 0.513-4.275-1.455-7.296-5.435-7.296-10.12 0-5.891 4.775-10.666 10.666-10.667v0c0.002 0 0.005 0 0.008 0 5.891 0 10.667 4.776 10.667 10.667 0 4.685-3.021 8.665-7.221 10.098l-0.075 0.022z"></path>
</symbol>
<symbol id="icon-icon-smartphone" viewBox="0 0 32 32">
<path d="M23.333 2.667c0.368 0 0.667 0.298 0.667 0.667v0 25.333c0 0.368-0.298 0.667-0.667 0.667v0h-14.667c-0.368 0-0.667-0.298-0.667-0.667v0-25.333c0-0.368 0.298-0.667 0.667-0.667v0h14.667zM26.667 2.667c0-1.473-1.194-2.667-2.667-2.667v0h-16c-1.473 0-2.667 1.194-2.667 2.667v0 26.667c0 1.473 1.194 2.667 2.667 2.667v0h16c1.473 0 2.667-1.194 2.667-2.667v0-26.667zM14 4h4c0.368 0 0.667 0.298 0.667 0.667s-0.298 0.667-0.667 0.667v0h-4c-0.368 0-0.667-0.298-0.667-0.667s0.298-0.667 0.667-0.667v0zM16 28c-0.736 0-1.333-0.597-1.333-1.333s0.597-1.333 1.333-1.333v0c0.736 0 1.333 0.597 1.333 1.333s-0.597 1.333-1.333 1.333v0zM22.667 24h-13.333v-17.333h13.333v17.333z"></path>
</symbol>
</defs>
</svg>
